<mxfile host="app.diagrams.net" agent="Mozilla/5.0 (Windows NT 10.0; Win64; x64) AppleWebKit/537.36 (KHTML, like Gecko) Chrome/130.0.0.0 Safari/537.36" version="24.8.2">
  <diagram name="Сторінка-1" id="Fl6M0vmOafqvnnuCGa-U">
    <mxGraphModel dx="934" dy="534" grid="1" gridSize="10" guides="1" tooltips="1" connect="1" arrows="1" fold="1" page="1" pageScale="1" pageWidth="827" pageHeight="1169" math="0" shadow="0">
      <root>
        <mxCell id="0" />
        <mxCell id="1" parent="0" />
        <mxCell id="0PWCIhvtBr_iczEqKHwq-6" value="" style="edgeStyle=orthogonalEdgeStyle;rounded=0;orthogonalLoop=1;jettySize=auto;html=1;" edge="1" parent="1" source="0PWCIhvtBr_iczEqKHwq-1" target="0PWCIhvtBr_iczEqKHwq-4">
          <mxGeometry relative="1" as="geometry" />
        </mxCell>
        <mxCell id="0PWCIhvtBr_iczEqKHwq-1" value="Start" style="ellipse;whiteSpace=wrap;html=1;" vertex="1" parent="1">
          <mxGeometry x="260" y="30" width="100" height="60" as="geometry" />
        </mxCell>
        <mxCell id="0PWCIhvtBr_iczEqKHwq-8" value="" style="edgeStyle=orthogonalEdgeStyle;rounded=0;orthogonalLoop=1;jettySize=auto;html=1;" edge="1" parent="1" source="0PWCIhvtBr_iczEqKHwq-2" target="0PWCIhvtBr_iczEqKHwq-5">
          <mxGeometry relative="1" as="geometry" />
        </mxCell>
        <mxCell id="0PWCIhvtBr_iczEqKHwq-2" value="Input : H[0], H[1],&amp;nbsp;&lt;div&gt;H[2], H[3],&amp;nbsp;&lt;/div&gt;" style="shape=parallelogram;perimeter=parallelogramPerimeter;whiteSpace=wrap;html=1;fixedSize=1;" vertex="1" parent="1">
          <mxGeometry x="233.75" y="220" width="152.5" height="50" as="geometry" />
        </mxCell>
        <mxCell id="0PWCIhvtBr_iczEqKHwq-7" value="" style="edgeStyle=orthogonalEdgeStyle;rounded=0;orthogonalLoop=1;jettySize=auto;html=1;" edge="1" parent="1" source="0PWCIhvtBr_iczEqKHwq-4" target="0PWCIhvtBr_iczEqKHwq-2">
          <mxGeometry relative="1" as="geometry" />
        </mxCell>
        <mxCell id="0PWCIhvtBr_iczEqKHwq-4" value="Create string array with answers and vector with heights of the table legs" style="rounded=1;whiteSpace=wrap;html=1;" vertex="1" parent="1">
          <mxGeometry x="227.5" y="120" width="165" height="70" as="geometry" />
        </mxCell>
        <mxCell id="0PWCIhvtBr_iczEqKHwq-13" value="" style="edgeStyle=orthogonalEdgeStyle;rounded=0;orthogonalLoop=1;jettySize=auto;html=1;" edge="1" parent="1" source="0PWCIhvtBr_iczEqKHwq-5" target="0PWCIhvtBr_iczEqKHwq-9">
          <mxGeometry relative="1" as="geometry" />
        </mxCell>
        <mxCell id="0PWCIhvtBr_iczEqKHwq-16" value="" style="edgeStyle=orthogonalEdgeStyle;rounded=0;orthogonalLoop=1;jettySize=auto;html=1;" edge="1" parent="1" source="0PWCIhvtBr_iczEqKHwq-5" target="0PWCIhvtBr_iczEqKHwq-15">
          <mxGeometry relative="1" as="geometry">
            <Array as="points">
              <mxPoint x="430" y="350" />
              <mxPoint x="430" y="70" />
            </Array>
          </mxGeometry>
        </mxCell>
        <mxCell id="0PWCIhvtBr_iczEqKHwq-5" value="i &amp;lt; 4" style="rhombus;whiteSpace=wrap;html=1;" vertex="1" parent="1">
          <mxGeometry x="240" y="310" width="140" height="80" as="geometry" />
        </mxCell>
        <mxCell id="0PWCIhvtBr_iczEqKHwq-9" value="input : d" style="shape=parallelogram;perimeter=parallelogramPerimeter;whiteSpace=wrap;html=1;fixedSize=1;" vertex="1" parent="1">
          <mxGeometry x="245" y="440" width="130" height="40" as="geometry" />
        </mxCell>
        <mxCell id="0PWCIhvtBr_iczEqKHwq-10" value="H [ i ] - = d&amp;nbsp;" style="rounded=0;whiteSpace=wrap;html=1;" vertex="1" parent="1">
          <mxGeometry x="80" y="380" width="130" height="50" as="geometry" />
        </mxCell>
        <mxCell id="0PWCIhvtBr_iczEqKHwq-11" value="" style="endArrow=classic;html=1;rounded=0;exitX=0;exitY=0.5;exitDx=0;exitDy=0;entryX=0.5;entryY=1;entryDx=0;entryDy=0;" edge="1" parent="1" source="0PWCIhvtBr_iczEqKHwq-9" target="0PWCIhvtBr_iczEqKHwq-10">
          <mxGeometry width="50" height="50" relative="1" as="geometry">
            <mxPoint x="340" y="510" as="sourcePoint" />
            <mxPoint x="390" y="460" as="targetPoint" />
            <Array as="points">
              <mxPoint x="145" y="460" />
            </Array>
          </mxGeometry>
        </mxCell>
        <mxCell id="0PWCIhvtBr_iczEqKHwq-12" value="" style="endArrow=classic;html=1;rounded=0;exitX=0.5;exitY=0;exitDx=0;exitDy=0;entryX=0;entryY=0.5;entryDx=0;entryDy=0;" edge="1" parent="1" source="0PWCIhvtBr_iczEqKHwq-10" target="0PWCIhvtBr_iczEqKHwq-5">
          <mxGeometry width="50" height="50" relative="1" as="geometry">
            <mxPoint x="340" y="510" as="sourcePoint" />
            <mxPoint x="390" y="460" as="targetPoint" />
            <Array as="points">
              <mxPoint x="145" y="350" />
            </Array>
          </mxGeometry>
        </mxCell>
        <mxCell id="0PWCIhvtBr_iczEqKHwq-18" value="" style="edgeStyle=orthogonalEdgeStyle;rounded=0;orthogonalLoop=1;jettySize=auto;html=1;" edge="1" parent="1" source="0PWCIhvtBr_iczEqKHwq-15" target="0PWCIhvtBr_iczEqKHwq-17">
          <mxGeometry relative="1" as="geometry" />
        </mxCell>
        <mxCell id="0PWCIhvtBr_iczEqKHwq-19" value="YES" style="edgeLabel;html=1;align=center;verticalAlign=middle;resizable=0;points=[];" vertex="1" connectable="0" parent="0PWCIhvtBr_iczEqKHwq-18">
          <mxGeometry x="-0.1111" y="-2" relative="1" as="geometry">
            <mxPoint as="offset" />
          </mxGeometry>
        </mxCell>
        <mxCell id="0PWCIhvtBr_iczEqKHwq-15" value="H [ i ] &amp;gt;= 0" style="rhombus;whiteSpace=wrap;html=1;" vertex="1" parent="1">
          <mxGeometry x="540" y="30" width="140" height="80" as="geometry" />
        </mxCell>
        <mxCell id="0PWCIhvtBr_iczEqKHwq-25" value="" style="edgeStyle=orthogonalEdgeStyle;rounded=0;orthogonalLoop=1;jettySize=auto;html=1;" edge="1" parent="1" source="0PWCIhvtBr_iczEqKHwq-17" target="0PWCIhvtBr_iczEqKHwq-24">
          <mxGeometry relative="1" as="geometry" />
        </mxCell>
        <mxCell id="0PWCIhvtBr_iczEqKHwq-17" value="Sort the array and search max_h, min_h" style="rounded=0;whiteSpace=wrap;html=1;" vertex="1" parent="1">
          <mxGeometry x="550" y="170" width="120" height="60" as="geometry" />
        </mxCell>
        <mxCell id="0PWCIhvtBr_iczEqKHwq-36" value="" style="edgeStyle=orthogonalEdgeStyle;rounded=0;orthogonalLoop=1;jettySize=auto;html=1;entryX=1;entryY=0.5;entryDx=0;entryDy=0;" edge="1" parent="1" source="0PWCIhvtBr_iczEqKHwq-21" target="0PWCIhvtBr_iczEqKHwq-32">
          <mxGeometry relative="1" as="geometry">
            <Array as="points">
              <mxPoint x="870" y="425" />
            </Array>
          </mxGeometry>
        </mxCell>
        <mxCell id="0PWCIhvtBr_iczEqKHwq-21" value="answer = 2&amp;nbsp;&lt;div&gt;(ERROR)&lt;/div&gt;" style="rounded=0;whiteSpace=wrap;html=1;" vertex="1" parent="1">
          <mxGeometry x="790" y="175" width="120" height="50" as="geometry" />
        </mxCell>
        <mxCell id="0PWCIhvtBr_iczEqKHwq-22" value="" style="endArrow=classic;html=1;rounded=0;exitX=1;exitY=0.5;exitDx=0;exitDy=0;entryX=0.5;entryY=0;entryDx=0;entryDy=0;" edge="1" parent="1" source="0PWCIhvtBr_iczEqKHwq-15" target="0PWCIhvtBr_iczEqKHwq-21">
          <mxGeometry width="50" height="50" relative="1" as="geometry">
            <mxPoint x="590" y="210" as="sourcePoint" />
            <mxPoint x="640" y="160" as="targetPoint" />
            <Array as="points">
              <mxPoint x="850" y="70" />
            </Array>
          </mxGeometry>
        </mxCell>
        <mxCell id="0PWCIhvtBr_iczEqKHwq-23" value="NO" style="edgeLabel;html=1;align=center;verticalAlign=middle;resizable=0;points=[];" vertex="1" connectable="0" parent="0PWCIhvtBr_iczEqKHwq-22">
          <mxGeometry x="-0.5676" y="-1" relative="1" as="geometry">
            <mxPoint as="offset" />
          </mxGeometry>
        </mxCell>
        <mxCell id="0PWCIhvtBr_iczEqKHwq-27" value="" style="edgeStyle=orthogonalEdgeStyle;rounded=0;orthogonalLoop=1;jettySize=auto;html=1;" edge="1" parent="1" source="0PWCIhvtBr_iczEqKHwq-24" target="0PWCIhvtBr_iczEqKHwq-26">
          <mxGeometry relative="1" as="geometry" />
        </mxCell>
        <mxCell id="0PWCIhvtBr_iczEqKHwq-28" value="YES" style="edgeLabel;html=1;align=center;verticalAlign=middle;resizable=0;points=[];" vertex="1" connectable="0" parent="0PWCIhvtBr_iczEqKHwq-27">
          <mxGeometry x="-0.1633" relative="1" as="geometry">
            <mxPoint as="offset" />
          </mxGeometry>
        </mxCell>
        <mxCell id="0PWCIhvtBr_iczEqKHwq-30" value="" style="edgeStyle=orthogonalEdgeStyle;rounded=0;orthogonalLoop=1;jettySize=auto;html=1;" edge="1" parent="1" source="0PWCIhvtBr_iczEqKHwq-24" target="0PWCIhvtBr_iczEqKHwq-29">
          <mxGeometry relative="1" as="geometry" />
        </mxCell>
        <mxCell id="0PWCIhvtBr_iczEqKHwq-31" value="NO" style="edgeLabel;html=1;align=center;verticalAlign=middle;resizable=0;points=[];" vertex="1" connectable="0" parent="0PWCIhvtBr_iczEqKHwq-30">
          <mxGeometry x="0.12" relative="1" as="geometry">
            <mxPoint as="offset" />
          </mxGeometry>
        </mxCell>
        <mxCell id="0PWCIhvtBr_iczEqKHwq-24" value="max_h &amp;gt;= 2 * min_h&amp;nbsp;&lt;div&gt;and min_h == 0&lt;/div&gt;" style="rhombus;whiteSpace=wrap;html=1;" vertex="1" parent="1">
          <mxGeometry x="490" y="270" width="150" height="90" as="geometry" />
        </mxCell>
        <mxCell id="0PWCIhvtBr_iczEqKHwq-34" value="" style="edgeStyle=orthogonalEdgeStyle;rounded=0;orthogonalLoop=1;jettySize=auto;html=1;" edge="1" parent="1" source="0PWCIhvtBr_iczEqKHwq-26" target="0PWCIhvtBr_iczEqKHwq-32">
          <mxGeometry relative="1" as="geometry" />
        </mxCell>
        <mxCell id="0PWCIhvtBr_iczEqKHwq-26" value="answer = 1&amp;nbsp;&lt;div&gt;(NO)&lt;/div&gt;" style="rounded=0;whiteSpace=wrap;html=1;" vertex="1" parent="1">
          <mxGeometry x="505" y="400" width="120" height="50" as="geometry" />
        </mxCell>
        <mxCell id="0PWCIhvtBr_iczEqKHwq-35" value="" style="edgeStyle=orthogonalEdgeStyle;rounded=0;orthogonalLoop=1;jettySize=auto;html=1;" edge="1" parent="1" target="0PWCIhvtBr_iczEqKHwq-32">
          <mxGeometry relative="1" as="geometry">
            <mxPoint x="775" y="341" as="sourcePoint" />
          </mxGeometry>
        </mxCell>
        <mxCell id="0PWCIhvtBr_iczEqKHwq-29" value="answer = 0&amp;nbsp;&lt;div&gt;(YES)&lt;/div&gt;" style="rounded=0;whiteSpace=wrap;html=1;" vertex="1" parent="1">
          <mxGeometry x="700" y="290" width="120" height="50" as="geometry" />
        </mxCell>
        <mxCell id="0PWCIhvtBr_iczEqKHwq-37" value="" style="edgeStyle=orthogonalEdgeStyle;rounded=0;orthogonalLoop=1;jettySize=auto;html=1;" edge="1" parent="1" source="0PWCIhvtBr_iczEqKHwq-32" target="0PWCIhvtBr_iczEqKHwq-33">
          <mxGeometry relative="1" as="geometry" />
        </mxCell>
        <mxCell id="0PWCIhvtBr_iczEqKHwq-32" value="Output answer" style="shape=parallelogram;perimeter=parallelogramPerimeter;whiteSpace=wrap;html=1;fixedSize=1;" vertex="1" parent="1">
          <mxGeometry x="710" y="405" width="130" height="40" as="geometry" />
        </mxCell>
        <mxCell id="0PWCIhvtBr_iczEqKHwq-33" value="End" style="ellipse;whiteSpace=wrap;html=1;" vertex="1" parent="1">
          <mxGeometry x="725" y="470" width="100" height="60" as="geometry" />
        </mxCell>
      </root>
    </mxGraphModel>
  </diagram>
</mxfile>
